<svg xmlns="http://www.w3.org/2000/svg" xmlns:xlink="http://www.w3.org/1999/xlink" width="400" zoomAndPan="magnify" viewBox="0 0 300 112.499997" height="150" preserveAspectRatio="xMidYMid meet" version="1.0"><defs><g/><clipPath id="id1"><path d="M 139 94 L 154 94 L 154 112.003906 L 139 112.003906 Z M 139 94 " clip-rule="nonzero"/></clipPath><clipPath id="id2"><path d="M 2.632812 67.964844 L 296.824219 67.964844 L 296.824219 78.417969 L 2.632812 78.417969 Z M 2.632812 67.964844 " clip-rule="nonzero"/></clipPath></defs><g fill="#ffffff" fill-opacity="1"><g transform="translate(2.632055, 54.652105)"><g><path d="M 11.625 -53.765625 L 26 -53.765625 L 25.015625 -47.5625 L 16.859375 -47.5625 L 8.6875 4.109375 L 16.859375 4.109375 L 15.8125 10.328125 L 1.4375 10.328125 Z M 11.625 -53.765625 "/></g></g></g><g fill="#ffffff" fill-opacity="1"><g transform="translate(21.248806, 54.652105)"><g><path d="M 26.203125 -33.3125 C 28.328125 -33.3125 30.25 -32.863281 31.96875 -31.96875 C 33.695312 -31.082031 35.113281 -29.863281 36.21875 -28.3125 C 37.332031 -26.769531 38.109375 -24.960938 38.546875 -22.890625 C 38.984375 -20.828125 39.003906 -18.617188 38.609375 -16.265625 C 38.304688 -14.347656 38 -12.429688 37.6875 -10.515625 C 37.382812 -8.597656 37.125 -6.859375 36.90625 -5.296875 C 36.601562 -3.460938 36.320312 -1.695312 36.0625 0 L 27.234375 0 C 27.546875 -2.050781 27.851562 -4.03125 28.15625 -5.9375 C 28.414062 -7.59375 28.6875 -9.300781 28.96875 -11.0625 C 29.25 -12.832031 29.5 -14.347656 29.71875 -15.609375 C 29.894531 -16.828125 29.882812 -18.023438 29.6875 -19.203125 C 29.488281 -20.378906 29.117188 -21.414062 28.578125 -22.3125 C 28.035156 -23.207031 27.335938 -23.925781 26.484375 -24.46875 C 25.640625 -25.007812 24.695312 -25.28125 23.65625 -25.28125 C 22.644531 -25.28125 21.660156 -25.09375 20.703125 -24.71875 C 19.742188 -24.351562 18.851562 -23.8125 18.03125 -23.09375 C 17.207031 -22.375 16.5 -21.46875 15.90625 -20.375 C 15.320312 -19.289062 14.921875 -18.007812 14.703125 -16.53125 L 12.078125 0 L 3 0 L 10.515625 -47.6875 L 19.59375 -47.6875 L 16.796875 -29.921875 C 18.054688 -31.003906 19.46875 -31.835938 21.03125 -32.421875 C 22.601562 -33.015625 24.328125 -33.3125 26.203125 -33.3125 Z M 26.203125 -33.3125 "/></g></g></g><g fill="#ffffff" fill-opacity="1"><g transform="translate(55.80435, 54.652105)"><g><path d="M 9.53125 -9.40625 C 10.925781 -9.40625 12.035156 -8.925781 12.859375 -7.96875 C 13.691406 -7.007812 14 -5.832031 13.78125 -4.4375 C 13.695312 -3.738281 13.46875 -3.097656 13.09375 -2.515625 C 12.726562 -1.929688 12.28125 -1.410156 11.75 -0.953125 C 11.226562 -0.492188 10.640625 -0.132812 9.984375 0.125 C 9.335938 0.382812 8.664062 0.515625 7.96875 0.515625 C 6.570312 0.515625 5.472656 0.0351562 4.671875 -0.921875 C 3.867188 -1.878906 3.570312 -3.050781 3.78125 -4.4375 C 4 -5.832031 4.664062 -7.007812 5.78125 -7.96875 C 6.894531 -8.925781 8.144531 -9.40625 9.53125 -9.40625 Z M 9.53125 -9.40625 "/></g></g></g><g fill="#ffffff" fill-opacity="1"><g transform="translate(69.45655, 54.652105)"><g><path d="M 28.546875 -32.40625 L 37.5625 -32.40625 L 32.46875 0 L 24.765625 0 L 23.84375 -2.484375 C 22.664062 -1.742188 21.378906 -1.144531 19.984375 -0.6875 C 18.597656 -0.226562 17.140625 0 15.609375 0 C 14.429688 0 13.125 -0.171875 11.6875 -0.515625 C 10.25 -0.867188 8.941406 -1.523438 7.765625 -2.484375 C 6.597656 -3.441406 5.695312 -4.769531 5.0625 -6.46875 C 4.425781 -8.164062 4.328125 -10.363281 4.765625 -13.0625 L 7.84375 -32.40625 L 16.921875 -32.40625 L 13.921875 -13.390625 C 13.742188 -12.390625 13.765625 -11.539062 13.984375 -10.84375 C 14.203125 -10.144531 14.550781 -9.585938 15.03125 -9.171875 C 15.507812 -8.765625 16.082031 -8.460938 16.75 -8.265625 C 17.425781 -8.066406 18.132812 -7.96875 18.875 -7.96875 C 19.445312 -7.96875 20.078125 -8.066406 20.765625 -8.265625 C 21.460938 -8.460938 22.140625 -8.773438 22.796875 -9.203125 C 23.453125 -9.640625 24.039062 -10.207031 24.5625 -10.90625 C 25.082031 -11.601562 25.410156 -12.429688 25.546875 -13.390625 Z M 28.546875 -32.40625 "/></g></g></g><g fill="#ffffff" fill-opacity="1"><g transform="translate(102.313708, 54.652105)"><g><path d="M 26.203125 -16.984375 C 28.328125 -15.285156 29.128906 -12.867188 28.609375 -9.734375 C 28.390625 -8.296875 27.832031 -6.941406 26.9375 -5.671875 C 26.050781 -4.410156 24.953125 -3.300781 23.640625 -2.34375 C 22.335938 -1.394531 20.859375 -0.644531 19.203125 -0.09375 C 17.546875 0.445312 15.828125 0.71875 14.046875 0.71875 C 12.691406 0.71875 11.40625 0.539062 10.1875 0.1875 C 8.96875 -0.15625 7.859375 -0.628906 6.859375 -1.234375 C 5.859375 -1.847656 5.019531 -2.578125 4.34375 -3.421875 C 3.664062 -4.273438 3.21875 -5.222656 3 -6.265625 C 4.050781 -6.742188 5.226562 -7.273438 6.53125 -7.859375 C 7.84375 -8.453125 9 -8.988281 10 -9.46875 C 10.300781 -8.820312 10.820312 -8.222656 11.5625 -7.671875 C 12.300781 -7.128906 13.390625 -6.859375 14.828125 -6.859375 C 16.304688 -6.859375 17.445312 -7.207031 18.25 -7.90625 C 19.0625 -8.601562 19.507812 -9.253906 19.59375 -9.859375 C 19.6875 -10.296875 19.515625 -10.695312 19.078125 -11.0625 C 18.640625 -11.4375 18.140625 -11.734375 17.578125 -11.953125 C 16.785156 -12.304688 16.117188 -12.492188 15.578125 -12.515625 C 15.035156 -12.535156 14.394531 -12.65625 13.65625 -12.875 C 11.382812 -13.4375 9.691406 -14.1875 8.578125 -15.125 C 7.472656 -16.0625 6.722656 -17.007812 6.328125 -17.96875 C 5.941406 -18.925781 5.78125 -19.835938 5.84375 -20.703125 C 5.90625 -21.578125 5.984375 -22.273438 6.078125 -22.796875 C 6.296875 -24.191406 6.804688 -25.519531 7.609375 -26.78125 C 8.410156 -28.039062 9.421875 -29.140625 10.640625 -30.078125 C 11.867188 -31.015625 13.234375 -31.765625 14.734375 -32.328125 C 16.234375 -32.898438 17.789062 -33.1875 19.40625 -33.1875 C 22.101562 -33.1875 24.390625 -32.457031 26.265625 -31 C 28.140625 -29.539062 29.226562 -27.632812 29.53125 -25.28125 L 22.140625 -22.9375 C 22.015625 -23.71875 21.582031 -24.347656 20.84375 -24.828125 C 20.101562 -25.304688 19.273438 -25.546875 18.359375 -25.546875 C 17.441406 -25.546875 16.65625 -25.238281 16 -24.625 C 15.351562 -24.019531 14.984375 -23.410156 14.890625 -22.796875 C 14.765625 -22.054688 14.941406 -21.476562 15.421875 -21.0625 C 15.898438 -20.65625 16.441406 -20.363281 17.046875 -20.1875 C 17.523438 -20.101562 17.992188 -20.023438 18.453125 -19.953125 C 18.910156 -19.890625 19.335938 -19.816406 19.734375 -19.734375 C 21.253906 -19.378906 22.523438 -18.984375 23.546875 -18.546875 C 24.578125 -18.117188 25.460938 -17.597656 26.203125 -16.984375 Z M 26.203125 -16.984375 "/></g></g></g><g fill="#ffffff" fill-opacity="1"><g transform="translate(128.638567, 54.652105)"><g><path d="M 44.09375 -32.40625 C 45.269531 -32.40625 46.5 -32.207031 47.78125 -31.8125 C 49.070312 -31.425781 50.207031 -30.726562 51.1875 -29.71875 C 52.164062 -28.71875 52.894531 -27.347656 53.375 -25.609375 C 53.851562 -23.867188 53.875 -21.644531 53.4375 -18.9375 L 50.5 0 L 41.484375 0 L 44.15625 -17.3125 C 44.375 -18.613281 44.414062 -19.722656 44.28125 -20.640625 C 44.15625 -21.554688 43.894531 -22.296875 43.5 -22.859375 C 43.113281 -23.429688 42.625 -23.835938 42.03125 -24.078125 C 41.445312 -24.316406 40.828125 -24.4375 40.171875 -24.4375 C 39.566406 -24.4375 38.9375 -24.328125 38.28125 -24.109375 C 37.625 -23.890625 37.023438 -23.519531 36.484375 -23 C 35.941406 -22.476562 35.453125 -21.757812 35.015625 -20.84375 C 34.578125 -19.925781 34.25 -18.769531 34.03125 -17.375 L 31.296875 0 L 22.28125 0 L 24.953125 -17.3125 C 25.390625 -19.96875 25.238281 -21.816406 24.5 -22.859375 C 23.757812 -23.910156 22.519531 -24.4375 20.78125 -24.4375 C 19.507812 -24.4375 18.273438 -23.847656 17.078125 -22.671875 C 15.878906 -21.492188 15.085938 -19.664062 14.703125 -17.1875 L 12.015625 0 L 3 0 L 8.09375 -32.40625 L 15.8125 -32.40625 L 16.65625 -29.390625 C 17.789062 -30.347656 19.066406 -31.085938 20.484375 -31.609375 C 21.898438 -32.140625 23.367188 -32.40625 24.890625 -32.40625 C 25.671875 -32.40625 26.472656 -32.328125 27.296875 -32.171875 C 28.128906 -32.023438 28.9375 -31.753906 29.71875 -31.359375 C 30.507812 -30.960938 31.238281 -30.445312 31.90625 -29.8125 C 32.582031 -29.1875 33.140625 -28.394531 33.578125 -27.4375 C 34.234375 -28.257812 34.972656 -28.988281 35.796875 -29.625 C 36.628906 -30.257812 37.507812 -30.78125 38.4375 -31.1875 C 39.375 -31.601562 40.332031 -31.910156 41.3125 -32.109375 C 42.300781 -32.304688 43.226562 -32.40625 44.09375 -32.40625 Z M 44.09375 -32.40625 "/></g></g></g><g fill="#ffffff" fill-opacity="1"><g transform="translate(179.328885, 54.652105)"><g><path d="M 41.9375 -32.40625 L 36.84375 0 L 29.078125 0 L 28.671875 -3.46875 C 27.148438 -1.769531 25.460938 -0.632812 23.609375 -0.0625 C 21.765625 0.5 19.882812 0.78125 17.96875 0.78125 C 15.65625 0.78125 13.59375 0.335938 11.78125 -0.546875 C 9.976562 -1.441406 8.488281 -2.660156 7.3125 -4.203125 C 6.132812 -5.753906 5.296875 -7.5625 4.796875 -9.625 C 4.296875 -11.695312 4.242188 -13.910156 4.640625 -16.265625 C 5.023438 -18.617188 5.785156 -20.828125 6.921875 -22.890625 C 8.054688 -24.960938 9.453125 -26.769531 11.109375 -28.3125 C 12.765625 -29.863281 14.632812 -31.082031 16.71875 -31.96875 C 18.8125 -32.863281 21.015625 -33.3125 23.328125 -33.3125 C 25.410156 -33.3125 27.269531 -32.984375 28.90625 -32.328125 C 30.539062 -31.679688 31.816406 -30.640625 32.734375 -29.203125 L 34.171875 -32.40625 Z M 30.375 -16.140625 C 30.632812 -17.835938 30.625 -19.257812 30.34375 -20.40625 C 30.0625 -21.5625 29.59375 -22.5 28.9375 -23.21875 C 28.28125 -23.9375 27.472656 -24.457031 26.515625 -24.78125 C 25.566406 -25.113281 24.503906 -25.28125 23.328125 -25.28125 C 22.148438 -25.28125 21.003906 -25.039062 19.890625 -24.5625 C 18.773438 -24.082031 17.769531 -23.4375 16.875 -22.625 C 15.988281 -21.820312 15.226562 -20.863281 14.59375 -19.75 C 13.96875 -18.644531 13.566406 -17.484375 13.390625 -16.265625 C 13.171875 -15.003906 13.203125 -13.828125 13.484375 -12.734375 C 13.773438 -11.648438 14.234375 -10.703125 14.859375 -9.890625 C 15.492188 -9.085938 16.289062 -8.445312 17.25 -7.96875 C 18.207031 -7.488281 19.273438 -7.25 20.453125 -7.25 C 21.628906 -7.25 22.75 -7.429688 23.8125 -7.796875 C 24.875 -8.171875 25.851562 -8.71875 26.75 -9.4375 C 27.644531 -10.15625 28.40625 -11.066406 29.03125 -12.171875 C 29.664062 -13.285156 30.113281 -14.609375 30.375 -16.140625 Z M 30.375 -16.140625 "/></g></g></g><g fill="#ffffff" fill-opacity="1"><g transform="translate(216.432031, 54.652105)"><g><path d="M 24.890625 -32.40625 C 26.109375 -32.40625 27.4375 -32.226562 28.875 -31.875 C 30.3125 -31.53125 31.609375 -30.878906 32.765625 -29.921875 C 33.921875 -28.960938 34.800781 -27.632812 35.40625 -25.9375 C 36.019531 -24.238281 36.109375 -22.039062 35.671875 -19.34375 L 32.65625 0 L 23.578125 0 L 26.59375 -19.015625 C 26.71875 -20.015625 26.671875 -20.863281 26.453125 -21.5625 C 26.234375 -22.257812 25.894531 -22.8125 25.4375 -23.21875 C 24.988281 -23.632812 24.425781 -23.941406 23.75 -24.140625 C 23.070312 -24.335938 22.382812 -24.4375 21.6875 -24.4375 C 21.125 -24.4375 20.492188 -24.335938 19.796875 -24.140625 C 19.097656 -23.941406 18.421875 -23.625 17.765625 -23.1875 C 17.117188 -22.75 16.53125 -22.179688 16 -21.484375 C 15.476562 -20.796875 15.15625 -19.972656 15.03125 -19.015625 L 12.015625 0 L 3 0 L 8.09375 -32.40625 L 15.8125 -32.40625 L 16.71875 -29.921875 C 17.894531 -30.660156 19.171875 -31.257812 20.546875 -31.71875 C 21.921875 -32.175781 23.367188 -32.40625 24.890625 -32.40625 Z M 24.890625 -32.40625 "/></g></g></g><g fill="#ffffff" fill-opacity="1"><g transform="translate(249.158541, 54.652105)"><g><path d="M 15.609375 10.328125 L 1.171875 10.328125 L 2.21875 4.109375 L 10.453125 4.109375 L 18.625 -47.5625 L 10.390625 -47.5625 L 11.359375 -53.765625 L 25.796875 -53.765625 Z M 15.609375 10.328125 "/></g></g></g><g fill="#ffffff" fill-opacity="1"><g transform="translate(2.632055, 107.120404)"><g><path d="M 13.984375 -9.203125 C 14.628906 -8.773438 15.082031 -8.234375 15.34375 -7.578125 C 15.613281 -6.929688 15.679688 -6.175781 15.546875 -5.3125 C 15.410156 -4.507812 15.097656 -3.757812 14.609375 -3.0625 C 14.128906 -2.363281 13.484375 -1.742188 12.671875 -1.203125 C 11.953125 -0.722656 11.160156 -0.351562 10.296875 -0.09375 C 9.441406 0.164062 8.5625 0.304688 7.65625 0.328125 C 6.75 0.328125 5.910156 0.203125 5.140625 -0.046875 C 4.367188 -0.296875 3.695312 -0.675781 3.125 -1.1875 C 2.28125 -1.894531 1.757812 -2.769531 1.5625 -3.8125 L 5.375 -5.4375 C 5.351562 -5.269531 5.378906 -5.0625 5.453125 -4.8125 C 5.523438 -4.5625 5.671875 -4.316406 5.890625 -4.078125 C 6.109375 -3.847656 6.398438 -3.644531 6.765625 -3.46875 C 7.140625 -3.300781 7.625 -3.21875 8.21875 -3.21875 C 9.175781 -3.21875 9.925781 -3.425781 10.46875 -3.84375 C 11.019531 -4.257812 11.335938 -4.691406 11.421875 -5.140625 C 11.453125 -5.410156 11.394531 -5.660156 11.25 -5.890625 C 11.101562 -6.128906 10.863281 -6.316406 10.53125 -6.453125 C 9.894531 -6.691406 9.210938 -6.890625 8.484375 -7.046875 C 7.765625 -7.203125 7.066406 -7.398438 6.390625 -7.640625 C 5.722656 -7.890625 5.125 -8.210938 4.59375 -8.609375 C 4.070312 -9.015625 3.679688 -9.582031 3.421875 -10.3125 C 3.304688 -10.644531 3.238281 -10.976562 3.21875 -11.3125 C 3.207031 -11.65625 3.226562 -12 3.28125 -12.34375 C 3.414062 -13.15625 3.722656 -13.9375 4.203125 -14.6875 C 4.691406 -15.445312 5.316406 -16.085938 6.078125 -16.609375 C 6.773438 -17.097656 7.523438 -17.472656 8.328125 -17.734375 C 9.140625 -17.992188 9.976562 -18.125 10.84375 -18.125 C 11.695312 -18.125 12.492188 -17.992188 13.234375 -17.734375 C 13.984375 -17.484375 14.628906 -17.117188 15.171875 -16.640625 C 15.710938 -16.160156 16.109375 -15.628906 16.359375 -15.046875 L 13.1875 -13.078125 C 12.894531 -13.566406 12.507812 -13.957031 12.03125 -14.25 C 11.550781 -14.539062 10.984375 -14.6875 10.328125 -14.6875 C 9.421875 -14.6875 8.6875 -14.484375 8.125 -14.078125 C 7.5625 -13.679688 7.226562 -13.15625 7.125 -12.5 C 7.082031 -12.195312 7.179688 -11.925781 7.421875 -11.6875 C 7.660156 -11.457031 7.984375 -11.25 8.390625 -11.0625 C 8.804688 -10.875 9.28125 -10.707031 9.8125 -10.5625 C 10.34375 -10.425781 10.875 -10.285156 11.40625 -10.140625 C 11.9375 -10.003906 12.425781 -9.859375 12.875 -9.703125 C 13.332031 -9.546875 13.703125 -9.378906 13.984375 -9.203125 Z M 13.984375 -9.203125 "/></g></g></g><g fill="#ffffff" fill-opacity="1"><g transform="translate(17.147272, 107.120404)"><g><path d="M 9.296875 -12.859375 C 10.191406 -12.859375 11.007812 -12.6875 11.75 -12.34375 C 12.488281 -12 13.101562 -11.523438 13.59375 -10.921875 C 14.09375 -10.328125 14.453125 -9.628906 14.671875 -8.828125 C 14.890625 -8.035156 14.921875 -7.1875 14.765625 -6.28125 C 14.617188 -5.375 14.3125 -4.519531 13.84375 -3.71875 C 13.382812 -2.914062 12.8125 -2.21875 12.125 -1.625 C 11.445312 -1.03125 10.679688 -0.5625 9.828125 -0.21875 C 8.984375 0.125 8.117188 0.296875 7.234375 0.296875 C 6.328125 0.296875 5.503906 0.125 4.765625 -0.21875 C 4.023438 -0.5625 3.40625 -1.03125 2.90625 -1.625 C 2.414062 -2.21875 2.0625 -2.914062 1.84375 -3.71875 C 1.625 -4.519531 1.585938 -5.375 1.734375 -6.28125 C 1.890625 -7.1875 2.195312 -8.035156 2.65625 -8.828125 C 3.125 -9.628906 3.703125 -10.328125 4.390625 -10.921875 C 5.078125 -11.523438 5.835938 -12 6.671875 -12.34375 C 7.515625 -12.6875 8.390625 -12.859375 9.296875 -12.859375 Z M 7.71875 -2.75 C 8.132812 -2.75 8.535156 -2.832031 8.921875 -3 C 9.304688 -3.164062 9.65625 -3.394531 9.96875 -3.6875 C 10.289062 -3.988281 10.566406 -4.34375 10.796875 -4.75 C 11.023438 -5.164062 11.179688 -5.625 11.265625 -6.125 C 11.347656 -6.625 11.34375 -7.09375 11.25 -7.53125 C 11.15625 -7.96875 11 -8.347656 10.78125 -8.671875 C 10.5625 -9.003906 10.285156 -9.265625 9.953125 -9.453125 C 9.617188 -9.648438 9.242188 -9.75 8.828125 -9.75 C 8.398438 -9.75 7.984375 -9.648438 7.578125 -9.453125 C 7.179688 -9.265625 6.816406 -9.003906 6.484375 -8.671875 C 6.160156 -8.347656 5.882812 -7.96875 5.65625 -7.53125 C 5.425781 -7.09375 5.269531 -6.625 5.1875 -6.125 C 5.101562 -5.625 5.109375 -5.164062 5.203125 -4.75 C 5.296875 -4.34375 5.457031 -3.988281 5.6875 -3.6875 C 5.925781 -3.394531 6.21875 -3.164062 6.5625 -3 C 6.90625 -2.832031 7.289062 -2.75 7.71875 -2.75 Z M 7.71875 -2.75 "/></g></g></g><g fill="#ffffff" fill-opacity="1"><g transform="translate(30.604059, 107.120404)"><g><path d="M 4.265625 -13.5625 C 4.398438 -14.4375 4.644531 -15.1875 5 -15.8125 C 5.363281 -16.445312 5.789062 -16.96875 6.28125 -17.375 C 6.78125 -17.789062 7.332031 -18.09375 7.9375 -18.28125 C 8.539062 -18.476562 9.160156 -18.578125 9.796875 -18.578125 C 10.535156 -18.578125 11.296875 -18.441406 12.078125 -18.171875 L 11.390625 -15.625 L 10.5625 -15.75 C 10.445312 -15.769531 10.332031 -15.78125 10.21875 -15.78125 C 10.113281 -15.789062 10.007812 -15.796875 9.90625 -15.796875 C 9.269531 -15.796875 8.773438 -15.640625 8.421875 -15.328125 C 8.078125 -15.023438 7.859375 -14.578125 7.765625 -13.984375 L 7.53125 -12.5 L 10.890625 -12.5 L 10.40625 -9.40625 L 7.0625 -9.40625 L 5.5625 0 L 2.109375 0 L 3.609375 -9.40625 L 1.96875 -9.40625 L 2.25 -11.234375 L 4.078125 -12.5 Z M 4.265625 -13.5625 "/></g></g></g><g fill="#ffffff" fill-opacity="1"><g transform="translate(39.146748, 107.120404)"><g><path d="M 6.453125 -4.484375 C 6.347656 -3.898438 6.453125 -3.445312 6.765625 -3.125 C 7.078125 -2.800781 7.523438 -2.640625 8.109375 -2.640625 C 8.328125 -2.640625 8.554688 -2.660156 8.796875 -2.703125 C 9.046875 -2.742188 9.304688 -2.816406 9.578125 -2.921875 L 9.125 0 C 8.6875 0.132812 8.21875 0.25 7.71875 0.34375 C 7.226562 0.4375 6.75 0.484375 6.28125 0.484375 C 5.738281 0.484375 5.234375 0.414062 4.765625 0.28125 C 4.296875 0.144531 3.894531 -0.0820312 3.5625 -0.40625 C 3.238281 -0.738281 3.003906 -1.175781 2.859375 -1.71875 C 2.710938 -2.269531 2.707031 -2.945312 2.84375 -3.75 L 3.75 -9.40625 L 1.96875 -9.40625 L 2.3125 -11.75 L 4.234375 -12.5 L 4.6875 -15.296875 L 8.171875 -15.296875 L 7.71875 -12.5 L 11.09375 -12.5 L 10.609375 -9.40625 L 7.234375 -9.40625 Z M 6.453125 -4.484375 "/></g></g></g><g fill="#ffffff" fill-opacity="1"><g transform="translate(47.790235, 107.120404)"><g><path d="M 19.53125 -12.5 L 23.109375 -12.5 L 17.390625 0 L 12.984375 0 L 12.09375 -6.03125 L 12.21875 -7.8125 L 11.71875 -6.03125 L 8.96875 0 L 4.59375 0 L 2.796875 -12.5 L 6.375 -12.5 L 7.53125 -3.453125 L 11.5 -12.5 L 14.390625 -12.5 L 15.46875 -3.40625 Z M 19.53125 -12.5 "/></g></g></g><g fill="#ffffff" fill-opacity="1"><g transform="translate(68.731584, 107.120404)"><g><path d="M 16.1875 -12.5 L 14.21875 0 L 11.21875 0 L 11.0625 -1.328125 C 10.476562 -0.679688 9.828125 -0.25 9.109375 -0.03125 C 8.398438 0.1875 7.675781 0.296875 6.9375 0.296875 C 6.039062 0.296875 5.242188 0.125 4.546875 -0.21875 C 3.847656 -0.5625 3.269531 -1.03125 2.8125 -1.625 C 2.363281 -2.21875 2.039062 -2.914062 1.84375 -3.71875 C 1.65625 -4.519531 1.640625 -5.375 1.796875 -6.28125 C 1.941406 -7.1875 2.234375 -8.035156 2.671875 -8.828125 C 3.109375 -9.628906 3.644531 -10.328125 4.28125 -10.921875 C 4.925781 -11.523438 5.648438 -12 6.453125 -12.34375 C 7.253906 -12.6875 8.101562 -12.859375 9 -12.859375 C 9.800781 -12.859375 10.515625 -12.726562 11.140625 -12.46875 C 11.773438 -12.21875 12.269531 -11.816406 12.625 -11.265625 L 13.1875 -12.5 Z M 11.71875 -6.21875 C 11.820312 -6.875 11.816406 -7.425781 11.703125 -7.875 C 11.597656 -8.320312 11.414062 -8.679688 11.15625 -8.953125 C 10.90625 -9.234375 10.59375 -9.4375 10.21875 -9.5625 C 9.851562 -9.6875 9.445312 -9.75 9 -9.75 C 8.539062 -9.75 8.097656 -9.65625 7.671875 -9.46875 C 7.242188 -9.289062 6.859375 -9.046875 6.515625 -8.734375 C 6.171875 -8.421875 5.875 -8.050781 5.625 -7.625 C 5.382812 -7.195312 5.234375 -6.75 5.171875 -6.28125 C 5.085938 -5.789062 5.097656 -5.332031 5.203125 -4.90625 C 5.316406 -4.488281 5.492188 -4.125 5.734375 -3.8125 C 5.972656 -3.507812 6.273438 -3.265625 6.640625 -3.078125 C 7.015625 -2.890625 7.429688 -2.796875 7.890625 -2.796875 C 8.335938 -2.796875 8.765625 -2.863281 9.171875 -3 C 9.585938 -3.144531 9.96875 -3.359375 10.3125 -3.640625 C 10.664062 -3.921875 10.960938 -4.273438 11.203125 -4.703125 C 11.441406 -5.128906 11.613281 -5.632812 11.71875 -6.21875 Z M 11.71875 -6.21875 "/></g></g></g><g fill="#ffffff" fill-opacity="1"><g transform="translate(83.045191, 107.120404)"><g><path d="M 6.25 -10.765625 C 6.445312 -11.035156 6.679688 -11.289062 6.953125 -11.53125 C 7.222656 -11.769531 7.519531 -11.984375 7.84375 -12.171875 C 8.175781 -12.367188 8.539062 -12.523438 8.9375 -12.640625 C 9.34375 -12.765625 9.789062 -12.828125 10.28125 -12.828125 C 10.832031 -12.828125 11.476562 -12.726562 12.21875 -12.53125 L 11.421875 -9.421875 C 11.253906 -9.453125 11.078125 -9.492188 10.890625 -9.546875 C 10.734375 -9.585938 10.5625 -9.617188 10.375 -9.640625 C 10.195312 -9.660156 10.03125 -9.671875 9.875 -9.671875 C 9.34375 -9.671875 8.835938 -9.59375 8.359375 -9.4375 C 7.878906 -9.289062 7.445312 -9.082031 7.0625 -8.8125 C 6.675781 -8.550781 6.351562 -8.226562 6.09375 -7.84375 C 5.832031 -7.46875 5.664062 -7.0625 5.59375 -6.625 L 4.5625 0 L 1.078125 0 L 3.046875 -12.5 L 6.203125 -12.5 Z M 6.25 -10.765625 "/></g></g></g><g fill="#ffffff" fill-opacity="1"><g transform="translate(92.419497, 107.120404)"><g><path d="M 9.328125 -12.859375 C 10.265625 -12.859375 11.085938 -12.664062 11.796875 -12.28125 C 12.515625 -11.90625 13.097656 -11.410156 13.546875 -10.796875 C 14.003906 -10.179688 14.328125 -9.472656 14.515625 -8.671875 C 14.703125 -7.878906 14.726562 -7.0625 14.59375 -6.21875 C 14.539062 -5.957031 14.476562 -5.691406 14.40625 -5.421875 C 14.332031 -5.148438 14.234375 -4.878906 14.109375 -4.609375 L 5.1875 -4.609375 C 5.425781 -4.035156 5.832031 -3.550781 6.40625 -3.15625 C 6.976562 -2.769531 7.625 -2.578125 8.34375 -2.578125 C 9.0625 -2.578125 9.703125 -2.632812 10.265625 -2.75 C 10.828125 -2.863281 11.367188 -3.015625 11.890625 -3.203125 L 12.703125 -1.0625 C 12.015625 -0.625 11.253906 -0.285156 10.421875 -0.046875 C 9.585938 0.179688 8.71875 0.296875 7.8125 0.296875 C 6.820312 0.296875 5.921875 0.125 5.109375 -0.21875 C 4.304688 -0.5625 3.628906 -1.023438 3.078125 -1.609375 C 2.535156 -2.203125 2.140625 -2.898438 1.890625 -3.703125 C 1.648438 -4.515625 1.609375 -5.375 1.765625 -6.28125 C 1.898438 -7.164062 2.203125 -8.003906 2.671875 -8.796875 C 3.140625 -9.597656 3.710938 -10.296875 4.390625 -10.890625 C 5.078125 -11.492188 5.84375 -11.972656 6.6875 -12.328125 C 7.539062 -12.679688 8.421875 -12.859375 9.328125 -12.859375 Z M 11.296875 -7.3125 C 11.210938 -8.03125 10.945312 -8.613281 10.5 -9.0625 C 10.050781 -9.519531 9.5 -9.75 8.84375 -9.75 C 8.175781 -9.75 7.53125 -9.519531 6.90625 -9.0625 C 6.28125 -8.613281 5.8125 -8.03125 5.5 -7.3125 Z M 11.296875 -7.3125 "/></g></g></g><g fill="#ffffff" fill-opacity="1"><g transform="translate(106.405497, 107.120404)"><g/></g></g><g fill="#ffffff" fill-opacity="1"><g transform="translate(112.327324, 107.120404)"><g><path d="M 4.03125 -17.875 L 15.203125 -17.875 L 14.640625 -14.390625 L 7.3125 -14.390625 L 6.8125 -11.171875 L 13.25 -11.171875 L 12.703125 -7.6875 L 6.25 -7.6875 L 5.5625 -3.453125 L 12.90625 -3.453125 L 12.375 0 L 1.203125 0 Z M 4.03125 -17.875 "/></g></g></g><g fill="#ffffff" fill-opacity="1"><g transform="translate(124.902096, 107.120404)"><g><path d="M 9.609375 -12.5 C 10.078125 -12.5 10.585938 -12.429688 11.140625 -12.296875 C 11.691406 -12.160156 12.191406 -11.90625 12.640625 -11.53125 C 13.085938 -11.164062 13.425781 -10.65625 13.65625 -10 C 13.894531 -9.34375 13.929688 -8.492188 13.765625 -7.453125 L 12.609375 0 L 9.09375 0 L 10.25 -7.328125 C 10.300781 -7.710938 10.285156 -8.039062 10.203125 -8.3125 C 10.117188 -8.582031 9.988281 -8.796875 9.8125 -8.953125 C 9.632812 -9.117188 9.414062 -9.238281 9.15625 -9.3125 C 8.894531 -9.382812 8.632812 -9.421875 8.375 -9.421875 C 8.15625 -9.421875 7.910156 -9.382812 7.640625 -9.3125 C 7.367188 -9.238281 7.109375 -9.113281 6.859375 -8.9375 C 6.609375 -8.769531 6.378906 -8.550781 6.171875 -8.28125 C 5.972656 -8.019531 5.847656 -7.703125 5.796875 -7.328125 L 4.640625 0 L 1.15625 0 L 3.125 -12.5 L 6.09375 -12.5 L 6.453125 -11.546875 C 6.898438 -11.828125 7.390625 -12.054688 7.921875 -12.234375 C 8.453125 -12.410156 9.015625 -12.5 9.609375 -12.5 Z M 9.609375 -12.5 "/></g></g></g><g clip-path="url(#id1)"><g fill="#ffffff" fill-opacity="1"><g transform="translate(137.527261, 107.120404)"><g><path d="M 12.90625 -12.5 L 15.875 -12.5 L 14.5625 -4.234375 C 14.414062 -3.273438 14.269531 -2.421875 14.125 -1.671875 C 13.976562 -0.921875 13.804688 -0.25 13.609375 0.34375 C 13.410156 0.9375 13.160156 1.46875 12.859375 1.9375 C 12.566406 2.40625 12.1875 2.84375 11.71875 3.25 C 10.863281 3.96875 9.957031 4.460938 9 4.734375 C 8.039062 5.003906 7.054688 5.140625 6.046875 5.140625 C 5.191406 5.140625 4.398438 5.035156 3.671875 4.828125 C 2.953125 4.628906 2.316406 4.351562 1.765625 4 L 2.296875 0.75 C 2.523438 1.207031 2.992188 1.578125 3.703125 1.859375 C 4.410156 2.148438 5.191406 2.296875 6.046875 2.296875 C 6.597656 2.296875 7.128906 2.222656 7.640625 2.078125 C 8.160156 1.929688 8.625 1.695312 9.03125 1.375 C 9.445312 1.0625 9.796875 0.664062 10.078125 0.1875 C 10.367188 -0.289062 10.5625 -0.875 10.65625 -1.5625 L 10.71875 -1.8125 C 10.15625 -1.375 9.535156 -1.023438 8.859375 -0.765625 C 8.179688 -0.503906 7.460938 -0.375 6.703125 -0.375 C 5.859375 -0.375 5.101562 -0.535156 4.4375 -0.859375 C 3.78125 -1.191406 3.238281 -1.640625 2.8125 -2.203125 C 2.382812 -2.765625 2.082031 -3.425781 1.90625 -4.1875 C 1.726562 -4.957031 1.707031 -5.769531 1.84375 -6.625 C 1.976562 -7.476562 2.253906 -8.285156 2.671875 -9.046875 C 3.085938 -9.804688 3.597656 -10.46875 4.203125 -11.03125 C 4.804688 -11.59375 5.488281 -12.035156 6.25 -12.359375 C 7.019531 -12.691406 7.828125 -12.859375 8.671875 -12.859375 C 9.460938 -12.859375 10.160156 -12.75 10.765625 -12.53125 C 11.367188 -12.320312 11.863281 -11.992188 12.25 -11.546875 Z M 7.890625 -3.484375 C 8.421875 -3.484375 8.894531 -3.578125 9.3125 -3.765625 C 9.738281 -3.960938 10.097656 -4.210938 10.390625 -4.515625 C 10.691406 -4.816406 10.929688 -5.148438 11.109375 -5.515625 C 11.296875 -5.890625 11.414062 -6.253906 11.46875 -6.609375 C 11.53125 -6.992188 11.523438 -7.375 11.453125 -7.75 C 11.390625 -8.125 11.257812 -8.457031 11.0625 -8.75 C 10.863281 -9.050781 10.582031 -9.289062 10.21875 -9.46875 C 9.851562 -9.65625 9.410156 -9.75 8.890625 -9.75 C 8.453125 -9.75 8.035156 -9.664062 7.640625 -9.5 C 7.253906 -9.332031 6.894531 -9.101562 6.5625 -8.8125 C 6.238281 -8.53125 5.96875 -8.203125 5.75 -7.828125 C 5.53125 -7.453125 5.382812 -7.046875 5.3125 -6.609375 C 5.25 -6.171875 5.265625 -5.757812 5.359375 -5.375 C 5.460938 -5 5.628906 -4.664062 5.859375 -4.375 C 6.085938 -4.09375 6.375 -3.875 6.71875 -3.71875 C 7.0625 -3.5625 7.453125 -3.484375 7.890625 -3.484375 Z M 7.890625 -3.484375 "/></g></g></g></g><g fill="#ffffff" fill-opacity="1"><g transform="translate(151.462856, 107.120404)"><g><path d="M 4.921875 0 L 1.4375 0 L 3.40625 -12.5 L 6.875 -12.5 Z M 5.421875 -14.21875 C 4.878906 -14.21875 4.453125 -14.398438 4.140625 -14.765625 C 3.828125 -15.140625 3.71875 -15.59375 3.8125 -16.125 C 3.851562 -16.394531 3.941406 -16.644531 4.078125 -16.875 C 4.210938 -17.113281 4.378906 -17.320312 4.578125 -17.5 C 4.785156 -17.675781 5.007812 -17.816406 5.25 -17.921875 C 5.5 -18.023438 5.757812 -18.078125 6.03125 -18.078125 C 6.5625 -18.078125 6.984375 -17.882812 7.296875 -17.5 C 7.609375 -17.125 7.722656 -16.664062 7.640625 -16.125 C 7.554688 -15.59375 7.296875 -15.140625 6.859375 -14.765625 C 6.429688 -14.398438 5.953125 -14.21875 5.421875 -14.21875 Z M 5.421875 -14.21875 "/></g></g></g><g fill="#ffffff" fill-opacity="1"><g transform="translate(156.830267, 107.120404)"><g><path d="M 9.609375 -12.5 C 10.078125 -12.5 10.585938 -12.429688 11.140625 -12.296875 C 11.691406 -12.160156 12.191406 -11.90625 12.640625 -11.53125 C 13.085938 -11.164062 13.425781 -10.65625 13.65625 -10 C 13.894531 -9.34375 13.929688 -8.492188 13.765625 -7.453125 L 12.609375 0 L 9.09375 0 L 10.25 -7.328125 C 10.300781 -7.710938 10.285156 -8.039062 10.203125 -8.3125 C 10.117188 -8.582031 9.988281 -8.796875 9.8125 -8.953125 C 9.632812 -9.117188 9.414062 -9.238281 9.15625 -9.3125 C 8.894531 -9.382812 8.632812 -9.421875 8.375 -9.421875 C 8.15625 -9.421875 7.910156 -9.382812 7.640625 -9.3125 C 7.367188 -9.238281 7.109375 -9.113281 6.859375 -8.9375 C 6.609375 -8.769531 6.378906 -8.550781 6.171875 -8.28125 C 5.972656 -8.019531 5.847656 -7.703125 5.796875 -7.328125 L 4.640625 0 L 1.15625 0 L 3.125 -12.5 L 6.09375 -12.5 L 6.453125 -11.546875 C 6.898438 -11.828125 7.390625 -12.054688 7.921875 -12.234375 C 8.453125 -12.410156 9.015625 -12.5 9.609375 -12.5 Z M 9.609375 -12.5 "/></g></g></g><g fill="#ffffff" fill-opacity="1"><g transform="translate(169.455432, 107.120404)"><g><path d="M 9.328125 -12.859375 C 10.265625 -12.859375 11.085938 -12.664062 11.796875 -12.28125 C 12.515625 -11.90625 13.097656 -11.410156 13.546875 -10.796875 C 14.003906 -10.179688 14.328125 -9.472656 14.515625 -8.671875 C 14.703125 -7.878906 14.726562 -7.0625 14.59375 -6.21875 C 14.539062 -5.957031 14.476562 -5.691406 14.40625 -5.421875 C 14.332031 -5.148438 14.234375 -4.878906 14.109375 -4.609375 L 5.1875 -4.609375 C 5.425781 -4.035156 5.832031 -3.550781 6.40625 -3.15625 C 6.976562 -2.769531 7.625 -2.578125 8.34375 -2.578125 C 9.0625 -2.578125 9.703125 -2.632812 10.265625 -2.75 C 10.828125 -2.863281 11.367188 -3.015625 11.890625 -3.203125 L 12.703125 -1.0625 C 12.015625 -0.625 11.253906 -0.285156 10.421875 -0.046875 C 9.585938 0.179688 8.71875 0.296875 7.8125 0.296875 C 6.820312 0.296875 5.921875 0.125 5.109375 -0.21875 C 4.304688 -0.5625 3.628906 -1.023438 3.078125 -1.609375 C 2.535156 -2.203125 2.140625 -2.898438 1.890625 -3.703125 C 1.648438 -4.515625 1.609375 -5.375 1.765625 -6.28125 C 1.898438 -7.164062 2.203125 -8.003906 2.671875 -8.796875 C 3.140625 -9.597656 3.710938 -10.296875 4.390625 -10.890625 C 5.078125 -11.492188 5.84375 -11.972656 6.6875 -12.328125 C 7.539062 -12.679688 8.421875 -12.859375 9.328125 -12.859375 Z M 11.296875 -7.3125 C 11.210938 -8.03125 10.945312 -8.613281 10.5 -9.0625 C 10.050781 -9.519531 9.5 -9.75 8.84375 -9.75 C 8.175781 -9.75 7.53125 -9.519531 6.90625 -9.0625 C 6.28125 -8.613281 5.8125 -8.03125 5.5 -7.3125 Z M 11.296875 -7.3125 "/></g></g></g><g fill="#ffffff" fill-opacity="1"><g transform="translate(183.441432, 107.120404)"><g><path d="M 9.328125 -12.859375 C 10.265625 -12.859375 11.085938 -12.664062 11.796875 -12.28125 C 12.515625 -11.90625 13.097656 -11.410156 13.546875 -10.796875 C 14.003906 -10.179688 14.328125 -9.472656 14.515625 -8.671875 C 14.703125 -7.878906 14.726562 -7.0625 14.59375 -6.21875 C 14.539062 -5.957031 14.476562 -5.691406 14.40625 -5.421875 C 14.332031 -5.148438 14.234375 -4.878906 14.109375 -4.609375 L 5.1875 -4.609375 C 5.425781 -4.035156 5.832031 -3.550781 6.40625 -3.15625 C 6.976562 -2.769531 7.625 -2.578125 8.34375 -2.578125 C 9.0625 -2.578125 9.703125 -2.632812 10.265625 -2.75 C 10.828125 -2.863281 11.367188 -3.015625 11.890625 -3.203125 L 12.703125 -1.0625 C 12.015625 -0.625 11.253906 -0.285156 10.421875 -0.046875 C 9.585938 0.179688 8.71875 0.296875 7.8125 0.296875 C 6.820312 0.296875 5.921875 0.125 5.109375 -0.21875 C 4.304688 -0.5625 3.628906 -1.023438 3.078125 -1.609375 C 2.535156 -2.203125 2.140625 -2.898438 1.890625 -3.703125 C 1.648438 -4.515625 1.609375 -5.375 1.765625 -6.28125 C 1.898438 -7.164062 2.203125 -8.003906 2.671875 -8.796875 C 3.140625 -9.597656 3.710938 -10.296875 4.390625 -10.890625 C 5.078125 -11.492188 5.84375 -11.972656 6.6875 -12.328125 C 7.539062 -12.679688 8.421875 -12.859375 9.328125 -12.859375 Z M 11.296875 -7.3125 C 11.210938 -8.03125 10.945312 -8.613281 10.5 -9.0625 C 10.050781 -9.519531 9.5 -9.75 8.84375 -9.75 C 8.175781 -9.75 7.53125 -9.519531 6.90625 -9.0625 C 6.28125 -8.613281 5.8125 -8.03125 5.5 -7.3125 Z M 11.296875 -7.3125 "/></g></g></g><g fill="#ffffff" fill-opacity="1"><g transform="translate(197.427432, 107.120404)"><g><path d="M 6.25 -10.765625 C 6.445312 -11.035156 6.679688 -11.289062 6.953125 -11.53125 C 7.222656 -11.769531 7.519531 -11.984375 7.84375 -12.171875 C 8.175781 -12.367188 8.539062 -12.523438 8.9375 -12.640625 C 9.34375 -12.765625 9.789062 -12.828125 10.28125 -12.828125 C 10.832031 -12.828125 11.476562 -12.726562 12.21875 -12.53125 L 11.421875 -9.421875 C 11.253906 -9.453125 11.078125 -9.492188 10.890625 -9.546875 C 10.734375 -9.585938 10.5625 -9.617188 10.375 -9.640625 C 10.195312 -9.660156 10.03125 -9.671875 9.875 -9.671875 C 9.34375 -9.671875 8.835938 -9.59375 8.359375 -9.4375 C 7.878906 -9.289062 7.445312 -9.082031 7.0625 -8.8125 C 6.675781 -8.550781 6.351562 -8.226562 6.09375 -7.84375 C 5.832031 -7.46875 5.664062 -7.0625 5.59375 -6.625 L 4.5625 0 L 1.078125 0 L 3.046875 -12.5 L 6.203125 -12.5 Z M 6.25 -10.765625 "/></g></g></g><g clip-path="url(#id2)"><path fill="#0096c7" d="M 2.632812 67.964844 L 296.824219 67.964844 L 296.824219 78.417969 L 2.632812 78.417969 Z M 2.632812 67.964844 " fill-opacity="1" fill-rule="nonzero"/></g></svg>