<svg xmlns="http://www.w3.org/2000/svg" width="666.667" height="666.667" preserveAspectRatio="xMidYMid meet" version="1.0" viewBox="0 0 500 500"><metadata>Created by potrace 1.14, written by Peter Selinger 2001-2017</metadata><g fill="#000" stroke="none"><path d="M0 2500 l0 -2500 2500 0 2500 0 0 2500 0 2500 -2500 0 -2500 0 0 -2500z m2376 1623 c-3 -16 -39 -246 -81 -513 -42 -267 -78 -493 -81 -504 -7 -21 1 -18 56 25 58 45 189 107 280 131 111 29 309 31 415 4 313 -80 528 -349 564 -708 14 -143 14 -142 -131 -1065 l-32 -203 -263 0 c-236 0 -263 2 -263 16 0 19 28 196 101 654 45 277 51 327 46 411 -14 233 -126 390 -304 428 -92 19 -232 -13 -328 -74 -108 -69 -210 -207 -244 -330 -12 -44 -45 -238 -121 -725 -28 -179 -53 -337 -56 -353 l-6 -27 -269 0 c-269 0 -269 0 -269 22 0 19 69 462 367 2351 l77 487 274 0 274 0 -6 -27z" transform="translate(0.000000,500.000000) scale(0.100000,-0.100000)"/></g></svg>